# xmcd
#
# Track frame offsets:
#	150
#	10577
#	24625
#	34431
#	48351
#	60711
#	72762
#	89766
#	101406
#	114154
#	126310
#	136567
#	147405
#	161500
#
# Disc length: 2413 seconds
#
# Revision: 1
# Processed by: cddbd v1.4PL0 Copyright (c) Steve Scherf et al.
# Submitted via: EasyCDDAExtractor 5.1.0
#
DISCID=ba096b0e
DTITLE=Gene Pistilli - I Still Get Dressed On Sundays
DYEAR=1900
DGENRE=Country
TTITLE0=I Still Get Dressed on Sundays
TTITLE1=Sioux City Sue
TTITLE2=Pearl River Turnaround
TTITLE3=New Shadow
TTITLE4=Too Gone Too Long
TTITLE5=Less of Me More Often
TTITLE6=Waltz Across Texas
TTITLE7=Texas to a T
TTITLE8=Sayin' Is The Only Way To Go
TTITLE9=All The Way
TTITLE10=It's Simple
TTITLE11=How The West Was Swung
TTITLE12=Oklahoma Stomp
TTITLE13=Mexacali Rose
EXTD=
EXTT0=
EXTT1=
EXTT2=
EXTT3=
EXTT4=
EXTT5=
EXTT6=
EXTT7=
EXTT8=
EXTT9=
EXTT10=
EXTT11=
EXTT12=
EXTT13=
PLAYORDER=
